<svg xmlns="http://www.w3.org/2000/svg" viewBox="0 0 188.95 216.29"><g id="rabbit" data-name="rabbit"><path class="cls-1" d="M181.66,96.7A108.35,108.35,0,0,0,158.33,66a106.05,106.05,0,0,0-13.6-10.61c-2.35-1.58-4.79-3-7.26-4.43a106.76,106.76,0,0,0-17.72-7.79c-.26-.08-.54-.19-.83-.25a81.62,81.62,0,0,0-15,12c-1.21,1.25-2.41,2.51-3.52,3.84A81.77,81.77,0,0,0,80.35,108c-1,0-1.93-.08-2.9-.08s-2.08,0-3.09.09a102.27,102.27,0,0,0,.77-12.58A102.6,102.6,0,0,0,26.23,7.9,101.81,101.81,0,0,0,10.51,0,101.3,101.3,0,0,0,4.08,16.53,102.78,102.78,0,0,0,37.94,125a54.2,54.2,0,1,0,83.58,5.56,122.87,122.87,0,0,0,15.37-17.11c7.28,2.86,16.21,4.48,27.08,4.66,3,.06,6,0,9-.27a88.44,88.44,0,0,0,16-2.7A109.5,109.5,0,0,0,181.66,96.7ZM17.6,45.28A84.59,84.59,0,0,1,20,25,84.86,84.86,0,0,1,57.39,95.38a84,84,0,0,1-.81,11.73c-.24,1.79-.55,3.57-.92,5.31-1.08.48-2.15,1-3.19,1.54a86.83,86.83,0,0,1-7.5-6.17A84.84,84.84,0,0,1,17.6,45.28ZM77.45,198.83a36.76,36.76,0,0,1-7-72.84,37.26,37.26,0,0,1,7-.66,36.75,36.75,0,0,1,0,73.5Zm76.06-98.24c-2.82-.06-5.49-.2-8-.44a71.66,71.66,0,0,1-18.12-3.88A42.35,42.35,0,0,1,113,87.62,38.78,38.78,0,0,0,122,103.69,123.69,123.69,0,0,1,109,118a53.65,53.65,0,0,0-12.81-6.8,81.64,81.64,0,0,1,10.88-30.74c1.14-1.94,2.38-3.8,3.7-5.64A81.47,81.47,0,0,1,122,62.17a108.55,108.55,0,0,1,41.81,38A97.75,97.75,0,0,1,153.51,100.59Z"/><path class="cls-1" d="M66.67,159c0,5.7-3.15,10.31-7,10.31s-7-4.61-7-10.31,3.15-10.3,7-10.3S66.67,153.31,66.67,159Z"/><path class="cls-1" d="M104.15,159c0,5.7-3.15,10.31-7,10.31s-7-4.61-7-10.31,3.15-10.3,7-10.3S104.15,153.31,104.15,159Z"/></g></svg>